<svg width="1514" height="188" viewBox="0 0 1514 188" fill="none" xmlns="http://www.w3.org/2000/svg">
<mask id="mask0_1062_331" style="mask-type:alpha" maskUnits="userSpaceOnUse" x="0" y="0" width="1514" height="188">
<path d="M1461 76.5386C1471.96 76.5386 1481.38 78.7904 1489.28 83.294C1497.22 87.7512 1503.32 94.0888 1507.59 102.307C1511.86 110.525 1514 120.298 1514 131.627C1514 142.63 1511.86 152.288 1507.59 160.598C1503.32 168.909 1497.29 175.386 1489.49 180.029C1481.73 184.672 1472.61 186.993 1462.12 186.993C1455.06 186.993 1448.47 185.879 1442.34 183.65C1436.25 181.375 1430.92 177.986 1426.32 173.483C1421.77 168.979 1418.22 163.315 1415.66 156.489C1413.11 149.664 1411.83 141.725 1411.83 132.671V124.523H1502.16V142.909H1439.76C1439.81 147.18 1440.76 150.964 1442.62 154.261C1444.47 157.557 1447.03 160.157 1450.28 162.061C1453.57 163.918 1457.36 164.847 1461.63 164.847C1466.18 164.847 1470.17 163.825 1473.61 161.782C1477.04 159.693 1479.74 156.907 1481.69 153.425C1483.68 149.943 1484.68 146.113 1484.68 141.934V124.453C1484.68 119.114 1483.68 114.541 1481.69 110.734C1479.74 106.88 1476.95 103.909 1473.33 101.819C1469.71 99.7299 1465.41 98.6852 1460.44 98.6852C1457.19 98.6852 1454.2 99.1495 1451.46 100.078C1448.72 101.007 1446.35 102.4 1444.36 104.257C1442.41 106.067 1440.92 108.342 1439.9 111.082L1412.53 109.271C1413.92 102.678 1416.75 96.9442 1421.03 92.0691C1425.3 87.1476 1430.8 83.3404 1437.53 80.6476C1444.31 77.9082 1452.13 76.5386 1461 76.5386Z" fill="var(--Gradient-White-7010, radial-gradient(60.62% 60.62% at 50.03% 39.38%, rgba(255, 255, 255, 0.70) 0%, rgba(255, 255, 255, 0.10) 100%))";/>
<path d="M1330.89 187.341C1322.76 187.341 1315.41 185.252 1308.81 181.074C1302.27 176.848 1297.07 170.65 1293.21 162.479C1289.41 154.261 1287.5 144.186 1287.5 132.253C1287.5 119.996 1289.48 109.805 1293.42 101.68C1297.37 93.5083 1302.61 87.4028 1309.16 83.3635C1315.75 79.2778 1322.97 77.2349 1330.82 77.2349C1336.81 77.2349 1341.8 78.2563 1345.79 80.2992C1349.83 82.2957 1353.08 84.8028 1355.54 87.8207C1358.05 90.7922 1359.95 93.7172 1361.25 96.5958H1362.16V42.9702H1391.76V185.6H1362.51V168.468H1361.25C1359.86 171.439 1357.89 174.388 1355.33 177.313C1352.83 180.191 1349.55 182.582 1345.52 184.486C1341.52 186.39 1336.65 187.341 1330.89 187.341ZM1340.29 163.732C1345.07 163.732 1349.11 162.432 1352.41 159.832C1355.75 157.186 1358.31 153.495 1360.07 148.759C1361.88 144.023 1362.79 138.475 1362.79 132.114C1362.79 125.753 1361.9 120.228 1360.14 115.539C1358.38 110.85 1355.82 107.228 1352.48 104.674C1349.14 102.121 1345.07 100.844 1340.29 100.844C1335.42 100.844 1331.31 102.167 1327.96 104.814C1324.62 107.46 1322.09 111.128 1320.37 115.817C1318.66 120.507 1317.8 125.939 1317.8 132.114C1317.8 138.336 1318.66 143.837 1320.37 148.62C1322.14 153.355 1324.67 157.07 1327.96 159.763C1331.31 162.409 1335.42 163.732 1340.29 163.732Z" fill="var(--Gradient-White-7010, radial-gradient(60.62% 60.62% at 50.03% 39.38%, rgba(255, 255, 255, 0.70) 0%, rgba(255, 255, 255, 0.10) 100%))"/>
<path d="M1199.14 123.757V185.6H1169.47V78.6279H1197.75V97.5013H1199C1201.37 91.2798 1205.34 86.3583 1210.91 82.7368C1216.48 79.0689 1223.24 77.235 1231.18 77.235C1238.61 77.235 1245.08 78.86 1250.61 82.11C1256.13 85.3601 1260.43 90.003 1263.49 96.0388C1266.56 102.028 1268.09 109.178 1268.09 117.489V185.6H1238.42V122.782C1238.47 116.235 1236.8 111.128 1233.41 107.46C1230.02 103.746 1225.35 101.889 1219.41 101.889C1215.42 101.889 1211.89 102.748 1208.82 104.466C1205.8 106.184 1203.44 108.691 1201.72 111.987C1200.05 115.237 1199.19 119.16 1199.14 123.757Z" fill="white"/>
<path d="M1147.69 114.285C1147.69 129.839 1144.74 143.071 1138.85 153.982C1133 164.893 1125.01 173.227 1114.89 178.984C1104.81 184.695 1093.48 187.55 1080.9 187.55C1068.23 187.55 1056.85 184.672 1046.78 178.914C1036.7 173.157 1028.74 164.823 1022.89 153.912C1017.04 143.002 1014.11 129.793 1014.11 114.285C1014.11 98.7314 1017.04 85.4992 1022.89 74.5883C1028.74 63.6775 1036.7 55.3667 1046.78 49.6559C1056.85 43.8987 1068.23 41.0201 1080.9 41.0201C1093.48 41.0201 1104.81 43.8987 1114.89 49.6559C1125.01 55.3667 1133 63.6775 1138.85 74.5883C1144.74 85.4992 1147.69 98.7314 1147.69 114.285ZM1117.12 114.285C1117.12 104.21 1115.61 95.7136 1112.59 88.7956C1109.62 81.8777 1105.42 76.6312 1099.98 73.0562C1094.55 69.4811 1088.19 67.6936 1080.9 67.6936C1073.61 67.6936 1067.25 69.4811 1061.82 73.0562C1056.39 76.6312 1052.16 81.8777 1049.15 88.7956C1046.17 95.7136 1044.69 104.21 1044.69 114.285C1044.69 124.36 1046.17 132.857 1049.15 139.775C1052.16 146.693 1056.39 151.939 1061.82 155.514C1067.25 159.089 1073.61 160.877 1080.9 160.877C1088.19 160.877 1094.55 159.089 1099.98 155.514C1105.42 151.939 1109.62 146.693 1112.59 139.775C1115.61 132.857 1117.12 124.36 1117.12 114.285ZM1059.66 28.345C1055.67 28.345 1052.23 26.9521 1049.35 24.1663C1046.48 21.3342 1045.04 17.9913 1045.04 14.1377C1045.04 10.1912 1046.48 6.84829 1049.35 4.10897C1052.23 1.36966 1055.67 0 1059.66 0C1063.7 0 1067.11 1.36966 1069.9 4.10897C1072.73 6.84829 1074.15 10.1912 1074.15 14.1377C1074.15 17.9913 1072.73 21.3342 1069.9 24.1663C1067.11 26.9521 1063.7 28.345 1059.66 28.345ZM1102.28 28.345C1098.29 28.345 1094.85 26.9521 1091.98 24.1663C1089.1 21.3342 1087.66 17.9913 1087.66 14.1377C1087.66 10.1912 1089.1 6.84829 1091.98 4.10897C1094.85 1.36966 1098.29 0 1102.28 0C1106.32 0 1109.73 1.36966 1112.52 4.10897C1115.35 6.84829 1116.77 10.1912 1116.77 14.1377C1116.77 17.9913 1115.35 21.3342 1112.52 24.1663C1109.73 26.9521 1106.32 28.345 1102.28 28.345Z" fill="white"/>
<path d="M837.186 185.6V78.6279H865.461V97.5013H866.715C868.943 91.2334 872.658 86.2887 877.858 82.6672C883.058 79.0457 889.279 77.235 896.522 77.235C903.858 77.235 910.103 79.0689 915.257 82.7368C920.41 86.3583 923.846 91.2798 925.564 97.5013H926.678C928.86 91.3726 932.807 86.4744 938.517 82.8065C944.275 79.0921 951.077 77.235 958.923 77.235C968.905 77.235 977.007 80.4154 983.229 86.7762C989.497 93.0905 992.631 102.051 992.631 113.659V185.6H963.032V119.509C963.032 113.566 961.453 109.109 958.296 106.137C955.139 103.166 951.193 101.68 946.457 101.68C941.071 101.68 936.869 103.398 933.851 106.834C930.833 110.223 929.325 114.703 929.325 120.275V185.6H900.562V118.882C900.562 113.635 899.053 109.457 896.035 106.346C893.063 103.235 889.14 101.68 884.265 101.68C880.969 101.68 877.997 102.516 875.351 104.187C872.751 105.812 870.685 108.11 869.152 111.082C867.62 114.007 866.854 117.443 866.854 121.389V185.6H837.186Z" fill="white"/>
<path d="M783.752 185.6V78.6273H813.42V185.6H783.752Z" fill="white"/>
<path d="M698.492 187.341C690.366 187.341 683.007 185.252 676.415 181.074C669.868 176.848 664.668 170.65 660.814 162.479C657.007 154.261 655.104 144.186 655.104 132.253C655.104 119.996 657.077 109.805 661.023 101.68C664.97 93.5083 670.216 87.4028 676.763 83.3635C683.356 79.2778 690.575 77.2349 698.422 77.2349C704.411 77.2349 709.402 78.2563 713.395 80.2992C717.435 82.2957 720.685 84.8028 723.145 87.8207C725.653 90.7922 727.556 93.7172 728.856 96.5958H729.762V42.9702H759.36V185.6H730.11V168.468H728.856C727.463 171.439 725.49 174.388 722.936 177.313C720.429 180.191 717.156 182.582 713.117 184.486C709.124 186.39 704.249 187.341 698.492 187.341ZM707.893 163.732C712.676 163.732 716.715 162.432 720.011 159.832C723.354 157.186 725.908 153.495 727.672 148.759C729.483 144.023 730.388 138.475 730.388 132.114C730.388 125.753 729.506 120.228 727.742 115.539C725.978 110.85 723.424 107.228 720.081 104.674C716.738 102.121 712.676 100.844 707.893 100.844C703.018 100.844 698.909 102.167 695.567 104.814C692.224 107.46 689.693 111.128 687.975 115.817C686.257 120.507 685.399 125.939 685.399 132.114C685.399 138.336 686.257 143.837 687.975 148.62C689.74 153.355 692.27 157.07 695.567 159.763C698.909 162.409 703.018 163.732 707.893 163.732Z" fill="white"/>
<path d="M573.811 187.341C565.686 187.341 558.327 185.252 551.734 181.074C545.188 176.848 539.988 170.65 536.134 162.479C532.327 154.261 530.423 144.186 530.423 132.253C530.423 119.996 532.397 109.805 536.343 101.68C540.29 93.5083 545.536 87.4028 552.083 83.3635C558.675 79.2778 565.895 77.2349 573.742 77.2349C579.731 77.2349 584.722 78.2563 588.715 80.2992C592.754 82.2957 596.004 84.8028 598.465 87.8207C600.972 90.7922 602.876 93.7172 604.176 96.5958H605.081V42.9702H634.68V185.6H605.43V168.468H604.176C602.783 171.439 600.81 174.388 598.256 177.313C595.749 180.191 592.476 182.582 588.436 184.486C584.444 186.39 579.569 187.341 573.811 187.341ZM583.213 163.732C587.995 163.732 592.035 162.432 595.331 159.832C598.674 157.186 601.228 153.495 602.992 148.759C604.803 144.023 605.708 138.475 605.708 132.114C605.708 125.753 604.826 120.228 603.062 115.539C601.297 110.85 598.744 107.228 595.401 104.674C592.058 102.121 587.995 100.844 583.213 100.844C578.338 100.844 574.229 102.167 570.886 104.814C567.543 107.46 565.013 111.128 563.295 115.817C561.577 120.507 560.718 125.939 560.718 132.114C560.718 138.336 561.577 143.837 563.295 148.62C565.059 153.355 567.59 157.07 570.886 159.763C574.229 162.409 578.338 163.732 583.213 163.732Z" fill="white"/>
<path d="M417.81 185.6H385.495L434.733 42.9702H473.594L522.763 185.6H490.448L454.721 75.5634H453.607L417.81 185.6ZM415.79 129.537H492.12V153.077H415.79V129.537Z" fill="white"/>
<path d="M320.273 185.6V78.6274H349.036V97.2919H350.151C352.101 90.6525 355.374 85.6382 359.97 82.2488C364.567 78.8131 369.86 77.0952 375.849 77.0952C377.335 77.0952 378.937 77.1881 380.654 77.3738C382.372 77.5595 383.881 77.8149 385.181 78.1399V104.465C383.788 104.047 381.862 103.676 379.401 103.351C376.94 103.026 374.688 102.863 372.645 102.863C368.281 102.863 364.381 103.815 360.945 105.719C357.556 107.576 354.863 110.176 352.867 113.519C350.917 116.862 349.942 120.715 349.942 125.08V185.6H320.273Z" fill="white"/>
<path d="M266.839 185.6V78.6275H296.508V185.6H266.839ZM281.743 64.8381C277.332 64.8381 273.548 63.3755 270.391 60.4505C267.28 57.479 265.725 53.9272 265.725 49.795C265.725 45.7093 267.28 42.2039 270.391 39.2789C273.548 36.3074 277.332 34.8217 281.743 34.8217C286.154 34.8217 289.915 36.3074 293.025 39.2789C296.183 42.2039 297.761 45.7093 297.761 49.795C297.761 53.9272 296.183 57.479 293.025 60.4505C289.915 63.3755 286.154 64.8381 281.743 64.8381Z" fill="white"/>
<path d="M137.738 185.6V42.9702H194.845C205.338 42.9702 214.09 44.5256 221.101 47.6363C228.112 50.7471 233.381 55.065 236.91 60.5901C240.439 66.0687 242.203 72.383 242.203 79.5331C242.203 85.1046 241.089 90.0029 238.86 94.2279C236.631 98.4065 233.567 101.842 229.667 104.535C225.814 107.182 221.403 109.062 216.435 110.176V111.569C221.867 111.801 226.951 113.333 231.687 116.166C236.469 118.998 240.346 122.968 243.317 128.075C246.289 133.135 247.774 139.171 247.774 146.182C247.774 153.75 245.894 160.505 242.133 166.448C238.419 172.345 232.917 177.011 225.628 180.447C218.338 183.882 209.354 185.6 198.676 185.6H137.738ZM167.893 160.947H192.477C200.881 160.947 207.01 159.345 210.863 156.141C214.717 152.891 216.644 148.573 216.644 143.187C216.644 139.241 215.692 135.759 213.788 132.741C211.885 129.723 209.169 127.355 205.64 125.637C202.158 123.919 198.003 123.06 193.174 123.06H167.893V160.947ZM167.893 102.655H190.249C194.381 102.655 198.049 101.935 201.253 100.496C204.503 99.0101 207.056 96.9208 208.913 94.2279C210.817 91.535 211.769 88.3082 211.769 84.5475C211.769 79.3938 209.935 75.2384 206.267 72.0813C202.645 68.9241 197.492 67.3455 190.806 67.3455H167.893V102.655Z" fill="white"/>
<path d="M63.8632 185.6L87.2635 42.9702H109.549L86.1492 185.6H63.8632ZM0 150.221L3.69111 127.935H115.121L111.43 150.221H0ZM13.7198 185.6L37.1201 42.9702H59.406L36.0058 185.6H13.7198ZM8.1483 100.635L11.9091 78.3492H123.339L119.578 100.635H8.1483Z" fill="white"/>
</mask>
<g mask="url(#mask0_1062_331)">
<path fill-rule="evenodd" clip-rule="evenodd" d="M1147.69 114.285C1147.69 129.839 1144.74 143.071 1138.85 153.982C1133 164.893 1125.01 173.227 1114.89 178.984C1104.81 184.695 1093.48 187.55 1080.9 187.55C1068.23 187.55 1056.85 184.672 1046.78 178.915C1036.7 173.157 1028.74 164.823 1022.89 153.912C1017.04 143.002 1014.11 129.793 1014.11 114.285C1014.11 98.7315 1017.04 85.4992 1022.89 74.5884C1028.74 63.6775 1036.7 55.3667 1046.78 49.6559C1056.85 43.8987 1068.23 41.0201 1080.9 41.0201C1093.48 41.0201 1104.81 43.8987 1114.89 49.6559C1125.01 55.3667 1133 63.6775 1138.85 74.5884C1144.74 85.4992 1147.69 98.7315 1147.69 114.285ZM1117.12 114.285C1117.12 104.21 1115.61 95.7136 1112.59 88.7957C1109.62 81.8777 1105.42 76.6312 1099.98 73.0562C1094.55 69.4812 1088.19 67.6936 1080.9 67.6936C1073.61 67.6936 1067.25 69.4812 1061.82 73.0562C1056.39 76.6312 1052.16 81.8777 1049.15 88.7957C1046.17 95.7136 1044.69 104.21 1044.69 114.285C1044.69 124.36 1046.17 132.857 1049.15 139.775C1052.16 146.693 1056.39 151.939 1061.82 155.514C1067.25 159.089 1073.61 160.877 1080.9 160.877C1088.19 160.877 1094.55 159.089 1099.98 155.514C1105.42 151.939 1109.62 146.693 1112.59 139.775C1115.61 132.857 1117.12 124.36 1117.12 114.285ZM1059.66 28.345C1055.67 28.345 1052.23 26.9521 1049.35 24.1664C1046.48 21.3342 1045.04 17.9913 1045.04 14.1377C1045.04 10.1912 1046.48 6.84833 1049.35 4.10901C1052.23 1.36969 1055.67 3.47137e-05 1059.66 3.47137e-05C1063.7 3.47137e-05 1067.11 1.36969 1069.9 4.10901C1072.73 6.84833 1074.15 10.1912 1074.15 14.1377C1074.15 17.9913 1072.73 21.3342 1069.9 24.1664C1067.11 26.9521 1063.7 28.345 1059.66 28.345ZM1102.28 28.345C1098.29 28.345 1094.85 26.9521 1091.98 24.1664C1089.1 21.3342 1087.66 17.9913 1087.66 14.1377C1087.66 10.1912 1089.1 6.84833 1091.98 4.10901C1094.85 1.36969 1098.29 3.47137e-05 1102.28 3.47137e-05C1106.32 3.47137e-05 1109.74 1.36969 1112.52 4.10901C1115.35 6.84833 1116.77 10.1912 1116.77 14.1377C1116.77 17.9913 1115.35 21.3342 1112.52 24.1664C1109.74 26.9521 1106.32 28.345 1102.28 28.345ZM1330.89 187.341C1322.76 187.341 1315.41 185.252 1308.81 181.073C1302.27 176.848 1297.07 170.65 1293.21 162.479C1289.41 154.261 1287.5 144.186 1287.5 132.253C1287.5 119.996 1289.47 109.805 1293.42 101.68C1297.37 93.5082 1302.61 87.4028 1309.16 83.3635C1315.75 79.2777 1322.97 77.2348 1330.82 77.2348C1336.81 77.2348 1341.8 78.2563 1345.79 80.2991C1349.83 82.2956 1353.08 84.8028 1355.54 87.8207C1358.05 90.7921 1359.95 93.7172 1361.25 96.5958H1362.16V42.9702H1391.76V185.6H1362.51V168.468H1361.25C1359.86 171.439 1357.89 174.388 1355.33 177.313C1352.83 180.191 1349.55 182.582 1345.51 184.486C1341.52 186.39 1336.65 187.341 1330.89 187.341ZM1340.29 163.732C1345.07 163.732 1349.11 162.432 1352.41 159.832C1355.75 157.186 1358.31 153.495 1360.07 148.759C1361.88 144.023 1362.79 138.475 1362.79 132.114C1362.79 125.753 1361.9 120.228 1360.14 115.539C1358.38 110.849 1355.82 107.228 1352.48 104.674C1349.14 102.121 1345.07 100.844 1340.29 100.844C1335.42 100.844 1331.31 102.167 1327.96 104.814C1324.62 107.46 1322.09 111.128 1320.37 115.817C1318.66 120.507 1317.8 125.939 1317.8 132.114C1317.8 138.336 1318.66 143.837 1320.37 148.62C1322.14 153.355 1324.67 157.07 1327.96 159.763C1331.31 162.409 1335.42 163.732 1340.29 163.732ZM1461 76.5386C1471.96 76.5386 1481.38 78.7904 1489.28 83.2941C1497.22 87.7513 1503.32 94.0888 1507.59 102.307C1511.86 110.525 1514 120.298 1514 131.627C1514 142.63 1511.86 152.288 1507.59 160.598C1503.32 168.909 1497.29 175.386 1489.49 180.029C1481.73 184.672 1472.61 186.993 1462.12 186.993C1455.06 186.993 1448.47 185.879 1442.34 183.651C1436.25 181.376 1430.92 177.986 1426.32 173.483C1421.77 168.979 1418.22 163.315 1415.66 156.49C1413.11 149.664 1411.83 141.725 1411.83 132.671V124.523H1484.68V124.453C1484.68 119.114 1483.68 114.541 1481.69 110.734C1479.74 106.88 1476.95 103.909 1473.33 101.819C1469.71 99.7299 1465.41 98.6853 1460.44 98.6853C1457.19 98.6853 1454.2 99.1496 1451.46 100.078C1448.72 101.007 1446.35 102.4 1444.36 104.257C1442.41 106.068 1440.92 108.343 1439.9 111.082L1412.53 109.271C1413.92 102.678 1416.75 96.9442 1421.03 92.0692C1425.3 87.1477 1430.8 83.3405 1437.53 80.6476C1444.31 77.9083 1452.13 76.5386 1461 76.5386ZM1439.76 142.909H1484.66C1484.52 146.71 1483.53 150.216 1481.69 153.425C1479.74 156.907 1477.04 159.693 1473.61 161.782C1470.17 163.825 1466.18 164.847 1461.63 164.847C1457.36 164.847 1453.57 163.918 1450.28 162.061C1447.03 160.157 1444.47 157.557 1442.62 154.261C1440.76 150.964 1439.81 147.18 1439.76 142.909ZM1199.14 185.6V123.757C1199.19 119.16 1200.05 115.237 1201.72 111.987C1203.44 108.691 1205.8 106.184 1208.82 104.466C1211.89 102.748 1215.42 101.889 1219.41 101.889C1225.35 101.889 1230.02 103.746 1233.41 107.46C1236.8 111.128 1238.47 116.235 1238.42 122.782V185.6H1268.09V117.489C1268.09 109.178 1266.56 102.028 1263.49 96.0388C1260.43 90.003 1256.13 85.3601 1250.61 82.1101C1245.08 78.86 1238.61 77.235 1231.18 77.235C1223.24 77.235 1216.48 79.069 1210.91 82.7369C1205.34 86.3583 1201.37 91.2798 1199 97.5013H1197.75V78.6279H1169.47V185.6H1199.14ZM837.186 78.6279V185.6H866.854V121.389C866.854 117.443 867.62 114.007 869.152 111.082C870.684 108.11 872.75 105.812 875.351 104.187C877.997 102.516 880.968 101.68 884.265 101.68C889.14 101.68 893.063 103.235 896.035 106.346C899.053 109.457 900.562 113.635 900.562 118.882V185.6H929.324V120.275C929.324 114.703 930.833 110.223 933.851 106.834C936.869 103.398 941.071 101.68 946.457 101.68C951.192 101.68 955.139 103.166 958.296 106.137C961.453 109.109 963.032 113.566 963.032 119.509V185.6H992.63V113.659C992.63 102.051 989.496 93.0906 983.229 86.7762C977.007 80.4154 968.905 77.235 958.923 77.235C951.076 77.235 944.275 79.0922 938.517 82.8065C932.807 86.4744 928.86 91.3727 926.678 97.5013H925.564C923.846 91.2798 920.41 86.3583 915.256 82.7369C910.103 79.069 903.858 77.235 896.522 77.235C889.279 77.235 883.058 79.0458 877.858 82.6672C872.658 86.2887 868.943 91.2334 866.715 97.5013H865.461V78.6279H837.186ZM783.752 185.6V78.6273H813.42V185.6H783.752ZM676.415 181.073C683.008 185.252 690.367 187.341 698.492 187.341C704.249 187.341 709.124 186.39 713.117 184.486C717.156 182.582 720.429 180.191 722.936 177.313C725.49 174.388 727.463 171.439 728.856 168.468H730.11V185.6H759.36V42.9702H729.762V96.5958H728.856C727.556 93.7172 725.653 90.7921 723.145 87.8207C720.685 84.8028 717.435 82.2956 713.395 80.2991C709.402 78.2563 704.411 77.2348 698.422 77.2348C690.575 77.2348 683.356 79.2777 676.763 83.3635C670.216 87.4028 664.97 93.5082 661.023 101.68C657.077 109.805 655.104 119.996 655.104 132.253C655.104 144.186 657.007 154.261 660.814 162.479C664.668 170.65 669.868 176.848 676.415 181.073ZM720.011 159.832C716.715 162.432 712.676 163.732 707.893 163.732C703.018 163.732 698.909 162.409 695.567 159.763C692.27 157.07 689.74 153.355 687.975 148.62C686.258 143.837 685.399 138.336 685.399 132.114C685.399 125.939 686.258 120.507 687.975 115.817C689.693 111.128 692.224 107.46 695.567 104.814C698.909 102.167 703.018 100.844 707.893 100.844C712.676 100.844 716.738 102.121 720.081 104.674C723.424 107.228 725.978 110.849 727.742 115.539C729.506 120.228 730.388 125.753 730.388 132.114C730.388 138.475 729.483 144.023 727.672 148.759C725.908 153.495 723.354 157.186 720.011 159.832ZM573.811 187.341C565.686 187.341 558.327 185.252 551.734 181.073C545.188 176.848 539.988 170.65 536.134 162.479C532.327 154.261 530.423 144.186 530.423 132.253C530.423 119.996 532.396 109.805 536.343 101.68C540.289 93.5082 545.536 87.4028 552.082 83.3635C558.675 79.2777 565.895 77.2348 573.742 77.2348C579.731 77.2348 584.722 78.2563 588.715 80.2991C592.754 82.2956 596.004 84.8028 598.465 87.8207C600.972 90.7921 602.876 93.7172 604.176 96.5958H605.081V42.9702H634.68V185.6H605.429V168.468H604.176C602.783 171.439 600.81 174.388 598.256 177.313C595.749 180.191 592.476 182.582 588.436 184.486C584.443 186.39 579.568 187.341 573.811 187.341ZM583.213 163.732C587.995 163.732 592.035 162.432 595.331 159.832C598.674 157.186 601.228 153.495 602.992 148.759C604.803 144.023 605.708 138.475 605.708 132.114C605.708 125.753 604.826 120.228 603.062 115.539C601.297 110.849 598.744 107.228 595.401 104.674C592.058 102.121 587.995 100.844 583.213 100.844C578.338 100.844 574.229 102.167 570.886 104.814C567.543 107.46 565.013 111.128 563.295 115.817C561.577 120.507 560.718 125.939 560.718 132.114C560.718 138.336 561.577 143.837 563.295 148.62C565.059 153.355 567.59 157.07 570.886 159.763C574.229 162.409 578.338 163.732 583.213 163.732ZM385.495 185.6H417.81L428.39 153.077H479.888L490.448 185.6H522.763L473.594 42.9702H434.733L385.495 185.6ZM454.721 75.5634L472.245 129.537H436.048L453.607 75.5634H454.721ZM320.273 185.6V78.6274H349.036V97.2919H350.151C352.101 90.6525 355.374 85.6382 359.97 82.2488C364.567 78.8131 369.86 77.0952 375.849 77.0952C377.335 77.0952 378.937 77.1881 380.654 77.3738C382.372 77.5595 383.881 77.8149 385.181 78.1399V104.465C383.788 104.047 381.862 103.676 379.401 103.351C376.94 103.026 374.688 102.863 372.645 102.863C368.281 102.863 364.381 103.815 360.945 105.719C357.556 107.576 354.863 110.176 352.867 113.519C350.917 116.862 349.942 120.715 349.942 125.08V185.6H320.273ZM266.84 78.6275V185.6H296.508V78.6275H266.84ZM270.391 60.4505C273.548 63.3755 277.332 64.838 281.743 64.838C286.154 64.838 289.915 63.3755 293.025 60.4505C296.183 57.479 297.761 53.9272 297.761 49.795C297.761 45.7093 296.183 42.2039 293.025 39.2788C289.915 36.3074 286.154 34.8216 281.743 34.8216C277.332 34.8216 273.548 36.3074 270.391 39.2788C267.281 42.2039 265.725 45.7093 265.725 49.795C265.725 53.9272 267.281 57.479 270.391 60.4505ZM137.738 185.6V42.9702H194.845C205.338 42.9702 214.09 44.5255 221.101 47.6363C228.112 50.747 233.382 55.0649 236.91 60.59C240.439 66.0686 242.203 72.383 242.203 79.5331C242.203 85.1046 241.089 90.0028 238.86 94.2279C236.632 98.4065 233.567 101.842 229.667 104.535C225.814 107.182 221.403 109.062 216.435 110.176V111.569C221.867 111.801 226.951 113.333 231.687 116.166C236.469 118.998 240.346 122.967 243.317 128.075C246.289 133.135 247.775 139.171 247.775 146.182C247.775 153.75 245.894 160.505 242.133 166.448C238.419 172.345 232.917 177.011 225.628 180.447C218.338 183.882 209.354 185.6 198.676 185.6H137.738ZM167.893 160.946H192.477C200.881 160.946 207.01 159.345 210.863 156.141C214.717 152.891 216.644 148.573 216.644 143.187C216.644 139.241 215.692 135.759 213.788 132.741C211.885 129.723 209.169 127.355 205.64 125.637C202.158 123.919 198.003 123.06 193.174 123.06H167.893V160.946ZM167.893 102.655H190.249C194.381 102.655 198.049 101.935 201.253 100.496C204.503 99.0101 207.056 96.9208 208.913 94.2279C210.817 91.535 211.769 88.3082 211.769 84.5474C211.769 79.3938 209.935 75.2384 206.267 72.0812C202.645 68.924 197.492 67.3454 190.806 67.3454H167.893V102.655ZM69.6676 150.221L63.8632 185.6H86.1492L91.9535 150.221H111.43L115.121 127.935H95.6098L100.089 100.635H119.578L123.339 78.3491H103.745L109.549 42.9702H87.2635L81.4591 78.3491H53.6017L59.406 42.9702H37.1201L31.3157 78.3491H11.9091L8.1483 100.635H27.6594L23.1804 127.935H3.69111L0 150.221H19.5242L13.7198 185.6H36.0058L41.8101 150.221H69.6676ZM45.4664 127.935L49.9454 100.635H77.8028L73.3239 127.935H45.4664Z" fill="white"/>
</g>
</svg>
