<svg width="16" height="16" viewBox="0 0 16 16" fill="none" xmlns="http://www.w3.org/2000/svg">
<g id="Linkedin">
<path id="&#239;&#131;&#161;" d="M3.69141 14H0.785156V4.65628H3.69141V14ZM2.22266 3.40628C1.31641 3.40628 0.566406 2.62503 0.566406 1.68753C0.566406 0.406278 1.94141 -0.406222 3.06641 0.250028C3.59766 0.531278 3.91016 1.09378 3.91016 1.68753C3.91016 2.62503 3.16016 3.40628 2.22266 3.40628ZM14.5352 14H11.6602V9.46878C11.6602 8.37503 11.6289 7.00003 10.1289 7.00003C8.62891 7.00003 8.41016 8.15628 8.41016 9.37503V14H5.50391V4.65628H8.28516V5.93753H8.31641C8.72266 5.21878 9.66016 4.43753 11.0664 4.43753C14.0039 4.43753 14.5664 6.37503 14.5664 8.87503V14H14.5352Z" fill="#344054"/>
</g>
</svg>
